<?xml version="1.0" encoding="utf-8"?>
<!-- Generator: Adobe Illustrator 18.1.0, SVG Export Plug-In . SVG Version: 6.00 Build 0)  -->
<svg version="1.1" id="Bulb" xmlns="http://www.w3.org/2000/svg" xmlns:xlink="http://www.w3.org/1999/xlink" x="0px" y="0px"
	 viewBox="0 0 612 792" enable-background="new 0 0 612 792" xml:space="preserve">
<path id="border2" fill="#8F8F8F" d="M21.9,410.6c-8.7,0-10.2,4.4-2.9,8.7c0,0,167.6,103.5,287.1,103.5s287.1-103.5,287.1-103.5
	c7.3-4.4,5.8-8.7-2.9-8.7H21.9z M306,516.8c-106.4,0-254.1-84.8-280-100.2h560C559.9,432,412.3,516.8,306,516.8z"/>
<path id="border1" fill="#8F8F8F" d="M590.1,381.4c8.7,0,10.2-4.4,2.9-8.7c0,0-167.6-103.5-287.1-103.5S18.9,372.7,18.9,372.7
	c-7.3,5.8-5.8,8.7,2.9,8.7H590.1z M26,375.4c25.9-15.4,173.6-100.2,280-100.2c106.4,0,254.1,84.8,280,100.2H26z"/>
<path id="fill2" fill="#8F8F8F" d="M21.9,410.6c-8.7,0-10.2,4.4-2.9,8.7c0,0,167.6,103.5,287.1,103.5s287.1-103.5,287.1-103.5
	c7.3-4.4,5.8-8.7-2.9-8.7H21.9z"/>
<path id="fill1" fill="#8F8F8F" d="M590.1,381.4c8.7,0,10.2-4.4,2.9-8.7c0,0-167.6-103.5-287.1-103.5S18.9,372.7,18.9,372.7
	c-7.3,5.8-5.8,8.7,2.9,8.7H590.1z"/>
</svg>
