<?xml version="1.0" encoding="utf-8"?>
<!-- Generator: Adobe Illustrator 18.1.0, SVG Export Plug-In . SVG Version: 6.00 Build 0)  -->
<svg version="1.1" xmlns="http://www.w3.org/2000/svg" xmlns:xlink="http://www.w3.org/1999/xlink" x="0px" y="0px"
	 viewBox="0 0 612 792" enable-background="new 0 0 612 792" xml:space="preserve">
<g id="Body">
	<g>
		<path fill="#8F8F8F" d="M65.6,381.4c0,2.9,1.5,7.3,2.9,13.1c8.7,30.6,24.8,94.7,18.9,148.6c-4.4,33.5-1.5,52.5,13.1,64.1
			c16,14.6,17.5,17.5,84.5,10.2c11.7-1.5,21.9-2.9,33.5-2.9c21.9,0,51,2.9,115.1,14.6l46.6,7.3c18.9,2.9,37.9,5.8,53.9,8.7
			c-10.2-4.4-21.9-11.7-32.1-17.5c-8.7-4.4-16-8.7-24.8-13.1c-11.7-7.3-24.8-16-36.4-24.8c-7.3-5.8-16-10.2-23.3-16
			c-13.1-10.2-26.2-20.4-39.3-30.6c-5.8-4.4-11.7-8.7-16-13.1c-17.5-14.6-35-29.1-48.1-42.3c-21.9-18.9-68.5-64.1-116.6-126.8
			c-1.5-1.5-2.9-2.9-4.4-4.4c-7.3-10.2-14.6-21.9-23.3-33.5c-8.7-13.1-17.5-24.8-26.2-39.3C52.5,326.1,62.7,369.8,65.6,381.4z"/>
	</g>
</g>
<g id="Bulb">
	<path id="border" fill="#8F8F8F" d="M559.5,629.1c26.2-36.4-23.3-126.8-83.1-199.6c-71.4-90.3-179.2-174.9-209.8-198.2
		c-100.5-71.4-154.9-87.6-186.5-86c0,0-64.1,4.1-4.4,113.7c0.2,0.4,0.5,0.7,0.7,1.1C139,361.6,212.8,434,241.9,460.1
		C300.2,514,387.6,582.5,463.4,616C463.4,616,536.5,653.8,559.5,629.1z M535.3,631.5c-28.5,0-68.8-20.6-69.2-20.8l-0.2-0.1l-0.2-0.1
		C372.5,569.3,274,481.6,246,455.7c-22.1-19.9-99.2-92.9-164.4-198.7l-0.6-1c-29-53.3-27.2-79-20.6-91.2
		c6.6-12.1,19.2-13.4,20.2-13.5c1.3-0.1,2.6-0.1,3.9-0.1c39.2,0,99.3,28.6,178.7,84.9c31.3,23.9,138.6,108.4,208.7,197.1l0.1,0.1
		c31.6,38.5,57.5,78.3,73,112.2c17,37.3,20.5,64.9,10.1,79.8C550.9,629.4,544.3,631.5,535.3,631.5
		C535.3,631.5,535.3,631.5,535.3,631.5z"/>
	<path id="fill1" fill="#8F8F8F" d="M559.5,629.1c26.2-36.4-23.3-126.8-83.1-199.6c-71.4-90.3-179.2-174.9-209.8-198.2
		c-100.5-71.4-154.9-87.6-186.5-86c0,0-64.1,4.1-4.4,113.7c0.2,0.4,0.5,0.7,0.7,1.1C139,361.6,212.8,434,241.9,460.1
		C300.2,514,387.6,582.5,463.4,616C463.4,616,536.5,653.8,559.5,629.1z"/>
</g>
</svg>
