<?xml version="1.0" encoding="utf-8"?>
<!-- Generator: Adobe Illustrator 18.1.0, SVG Export Plug-In . SVG Version: 6.00 Build 0)  -->
<svg version="1.1" xmlns="http://www.w3.org/2000/svg" xmlns:xlink="http://www.w3.org/1999/xlink" x="0px" y="0px"
	 viewBox="0 0 612 792" enable-background="new 0 0 612 792" xml:space="preserve">
<g id="Boby">
	<g>
		<path fill="#8F8F8F" d="M303.1,600c-26.2,0-42.3-1.5-52.5-2.9c2.9,32.1,8.7,68.5,18.9,78.7c13.1,13.1,20.4,13.1,32.1,11.7h7.3h4.4
			c11.7,0,20.4,0,35-13.1c7.3-5.8,13.1-37.9,17.5-77.2c-13.1,2.9-27.7,2.9-52.5,2.9H303.1z"/>
		<path fill="#8F8F8F" d="M383.2,327.5c27.7-2.9,51-5.8,59.7-7.3l0,0h2.9c1.5,0,30.6-7.3,43.7-45.2c10.2-26.2,14.6-46.6,16-56.8
			H103.5c1.5,10.2,5.8,29.1,16,56.8c14.6,37.9,43.7,43.7,43.7,45.2h2.9l1.5,1.5c10.2,1.5,30.6,4.4,53.9,5.8H383.2z"/>
		<path fill="#8F8F8F" d="M180.7,350.8c11.7,16,29.1,42.3,40.8,68.5c20.4,46.6,24.8,116.6,24.8,122.4s2.9,14.6,4.4,16
			c2.9,1.5,18.9,2.9,48.1,2.9h7.3h5.8c27.7,0,45.2-1.5,48.1-2.9c1.5-1.5,4.4-10.2,4.4-16c0-4.4,5.8-75.8,24.8-122.4
			c11.7-27.7,29.1-53.9,40.8-69.9c-27.7,4.4-78.7,10.2-128.2,10.2C257.9,359.6,209.8,353.7,180.7,350.8z"/>
		<path fill="#8F8F8F" d="M303.1,330.4c33.5,0,67-2.9,96.2-4.4H206.9C236.1,329,269.6,330.4,303.1,330.4z"/>
	</g>
</g>
<g id="Bulb">
	<path id="border" fill="#8F8F8F" d="M304.5,103.1c-137,0-182.1,37.9-196.7,61.2c-4.4,7.3-7.3,16-8.7,20.4h412.4
		c-1.5-5.8-2.9-13.1-8.7-20.4C488.1,141,441.5,103.1,304.5,103.1z M107.6,178.7c1.4-3.6,3.2-7.7,5.4-11.3
		c6.4-10.2,20.2-24.9,49.6-36.9c34.7-14.2,82.4-21.4,142-21.4c59.6,0,107.6,7.2,142.7,21.4c30.1,12.2,44,26.8,50.3,37l0.2,0.3
		l0.2,0.3c2.8,3.6,4.5,7.2,5.6,10.7H107.6z"/>
	<path id="fill1" fill="#8F8F8F" d="M304.5,103.1c-137,0-182.1,37.9-196.7,61.2c-4.4,7.3-7.3,16-8.7,20.4h412.4
		c-1.5-5.8-2.9-13.1-8.7-20.4C488.1,141,441.5,103.1,304.5,103.1z"/>
</g>
</svg>
