<?xml version="1.0" encoding="utf-8"?>
<!-- Generator: Adobe Illustrator 18.1.0, SVG Export Plug-In . SVG Version: 6.00 Build 0)  -->
<svg version="1.1" id="Bulb" xmlns="http://www.w3.org/2000/svg" xmlns:xlink="http://www.w3.org/1999/xlink" x="0px" y="0px"
	 viewBox="0 0 612 792" enable-background="new 0 0 612 792" xml:space="preserve">
<g id="border">
	<path fill="#8F8F8F" d="M105.9,562c-37.9-12.1-62.2-42.1-62.2-42.1V565c0,0,0,35,29.1,64.1c27.7,27.7,69.9,42.3,129.7,42.3h365.7
		v-94.7H196.7l0,0c-13.1,0-52.5-1.5-90.3-14.6l0,0 M104.4,567.8c39.9,13.8,80.8,14.9,92.3,14.9h365.6v82.7H202.5
		c-57.2,0-98.2-13.2-125.4-40.5C50.2,598,49.7,565.3,49.7,565v-30.2c11,10.3,29.8,25.1,54.3,32.9"/>
	<path fill="#8F8F8F" d="M568.3,227c0,0,0-35-29.1-64.1c-26.2-27.7-69.9-42.3-129.7-42.3H43.7v94.7h371.6c0,0,2.9,0,8.7,0
		c16,0,49.5,2.9,83.1,17.5c0,0,19.6,9.1,35.7,20.7c12,8.7,21,19.5,24.1,24.5l1.5,1.5L568.3,227L568.3,227z M562.3,262.8
		c-4.3-4.5-9.7-9.6-16-14.1c-16.3-11.8-35.8-20.9-36.6-21.3l-0.1-0.1c-38.4-16.7-75.1-18-85.5-18H49.7v-82.7h359.7
		c57.8,0,99.9,13.6,125.3,40.4l0.1,0.1c27.1,27.1,27.4,59.5,27.4,59.9V262.8z"/>
	<path fill="#8F8F8F" d="M524.6,279.5L524.6,279.5c-5.8,20.4-21.9,37.8-65.6,49.5c-68.5,16-240.4,23.3-247.7,23.3
		c-17.5,0-163.2,2.9-167.6,97.6c0,0.7,1,16.8,9,31.4c9.3,17,33.4,37.1,34.8,38.5c7.3-20.4,24.8-42.3,67-56.8
		c35-11.7,237.5-23.3,246.3-23.3c1.5,0,162.8-14.2,170-107.5L524.6,279.5z M85.2,509.7c-13.6-12.5-22.7-23-27.2-31.3
		c-6.9-12.7-8.1-27-8.2-28.5c4.4-89.1,145.5-91.6,161.6-91.6c9,0,181-7.5,249.1-23.5l0.2,0c35.4-9.4,56.3-23.2,66.1-43.8l37.9,43.3
		c-2.1,18.5-11.1,35.1-26.8,49.3c-13.6,12.2-32.1,22.8-55.1,31.4c-40.1,15-80.3,18.7-82.2,18.8c-10.8,0.2-211.8,11.6-247.9,23.6
		C119.1,468.9,96.5,486.5,85.2,509.7z"/>
	<path fill="#8F8F8F" d="M306,170.1L306,170.1L306,170.1L306,170.1z"/>
	<path fill="#8F8F8F" d="M306,170.1L306,170.1L306,170.1L306,170.1z"/>
</g>
<g >
	<path id="fill1" fill="#8F8F8F" d="M105.9,562c-37.9-12.1-62.2-42.1-62.2-42.1V565c0,0,0,35,29.1,64.1c27.7,27.7,69.9,42.3,129.7,42.3h365.7
		v-94.7H196.7l0,0c-13.1,0-52.5-1.5-90.3-14.6l0,0"/>
	<path id="fill2" fill="#8F8F8F" d="M568.3,227c0,0,0-35-29.1-64.1c-26.2-27.7-69.9-42.3-129.7-42.3H43.7v94.7h371.6c0,0,2.9,0,8.7,0
		c16,0,49.5,2.9,83.1,17.5c0,0,19.6,9.1,35.7,20.7c12,8.7,21,19.5,24.1,24.5l1.5,1.5L568.3,227L568.3,227z"/>
	<path id="fill3" fill="#8F8F8F" d="M524.6,279.5L524.6,279.5c-5.8,20.4-21.9,37.8-65.6,49.5c-68.5,16-240.4,23.3-247.7,23.3
		c-17.5,0-163.2,2.9-167.6,97.6c0,0.7,1,16.8,9,31.4c9.3,17,33.4,37.1,34.8,38.5c7.3-20.4,24.8-42.3,67-56.8
		c35-11.7,237.5-23.3,246.3-23.3c1.5,0,162.8-14.2,170-107.5L524.6,279.5z"/>
	<path fill="#FFFFFF" d="M306,170.1L306,170.1L306,170.1L306,170.1z"/>
</g>
</svg>
