<?xml version="1.0" encoding="utf-8"?>
<!-- Generator: Adobe Illustrator 18.1.0, SVG Export Plug-In . SVG Version: 6.00 Build 0)  -->
<svg version="1.1" xmlns="http://www.w3.org/2000/svg" xmlns:xlink="http://www.w3.org/1999/xlink" x="0px" y="0px"
	 viewBox="0 0 612 792" enable-background="new 0 0 612 792" xml:space="preserve">
<g id="Body">
	<g>
		<path fill="#8F8F8F" d="M93.3,356.7h425.5l1.5-4.4c0,0-59.7-102-211.3-107.8c0,0-131.1-8.7-218.6,107.8L93.3,356.7z"/>
	</g>
</g>
<g id="Bulb">
	<path id="border" fill="#8F8F8F" d="M138.4,387.3c0,0-94.7,56.8-123.9,157.4l7.3,2.9h566.8l7.3-2.9c0,0-27.7-97.6-123.9-157.4
		L138.4,387.3z M23,541.5l-1.1-0.4c27.8-87.6,106.9-140.6,118.2-147.8h330.2c47.7,30,77.6,69.7,94.3,97.8
		c13.4,22.5,20.8,41.4,23.8,50.1l-1,0.4H23z"/>
	<path id="fill1" fill="#8F8F8F" d="M138.4,387.3c0,0-94.7,56.8-123.9,157.4l7.3,2.9h566.8l7.3-2.9c0,0-27.7-97.6-123.9-157.4
		L138.4,387.3z"/>
</g>
</svg>
