<?xml version="1.0" encoding="utf-8"?>
<!-- Generator: Adobe Illustrator 18.1.0, SVG Export Plug-In . SVG Version: 6.00 Build 0)  -->
<svg version="1.1" xmlns="http://www.w3.org/2000/svg" xmlns:xlink="http://www.w3.org/1999/xlink" x="0px" y="0px"
	 viewBox="0 0 612 792" enable-background="new 0 0 612 792" xml:space="preserve">
<g id="Body">
	<g>
		<path fill="#8F8F8F" d="M135.5,508.2c-33.5,35-78.7,84.5-91.8,100.5c10.2,4.4,35,13.1,74.3,17.5c10.2,1.5,20.4,1.5,30.6,1.5
			c46.6,0,87.4-8.7,96.2-11.7c1.5-1.5,2.9-4.4,4.4-7.3C198.2,578.1,151.5,525.7,135.5,508.2z"/>
		<path fill="#8F8F8F" d="M262.3,464.5c-99.1-91.8-157.4-188-154.5-246.3c-11.7,27.7-18.9,64.1-16,93.3c8.7,100.5,67,161.7,67,161.7
			l5.8,5.8l0,0c14.6,17.5,65.6,74.3,116.6,102l0,0l0,0c64.1,39.3,116.6,45.2,142.8,45.2c7.3,0,11.7,0,13.1,0
			c46.6-5.8,69.9-16,81.6-21.9c1.5-1.5,4.4-1.5,4.4-2.9c2.9-1.5,8.7-5.8,16-10.2c-8.7,4.4-17.5,7.3-30.6,7.3
			C448.8,598.5,351.2,546.1,262.3,464.5z"/>
	</g>
</g>
<g id="Bulb">
	<path id="border" fill="#8F8F8F" d="M290,435.3C374.5,512.6,469.2,565,526,565c14.6,0,26.2-4.4,33.5-11.7
		c30.6-33.5-18.9-144.3-141.3-257.9C333.7,216.8,239,165.8,182.1,165.8c-14.6,0-26.2,4.4-33.5,11.7C118,210.9,167.6,321.7,290,435.3
		z M526,559c-54.9,0-148.2-51.5-232-128.1c-56.2-52.2-101.3-108.1-126.8-157.3c-22.2-42.9-27.6-77.3-14.3-92
		c6.4-6.3,16.7-9.8,29.2-9.8c26.7,0,63.9,12.3,104.8,34.6c42.4,23.2,86.4,55.5,127.2,93.5c56.3,52.3,101.3,108.2,126.8,157.4
		c22.2,42.9,27.6,77.3,14.3,92C548.8,555.5,538.5,559,526,559z"/>
	<path id="fill1" fill="#8F8F8F" d="M290,435.3C374.5,512.6,469.2,565,526,565c14.6,0,26.2-4.4,33.5-11.7
		c30.6-33.5-18.9-144.3-141.3-257.9C333.7,216.8,239,165.8,182.1,165.8c-14.6,0-26.2,4.4-33.5,11.7C118,210.9,167.6,321.7,290,435.3
		z"/>
</g>
</svg>
