<?xml version="1.0" encoding="utf-8"?>
<!-- Generator: Adobe Illustrator 18.1.0, SVG Export Plug-In . SVG Version: 6.00 Build 0)  -->
<svg version="1.1" xmlns="http://www.w3.org/2000/svg" xmlns:xlink="http://www.w3.org/1999/xlink" x="0px" y="0px"
	 viewBox="0 0 612 792" enable-background="new 0 0 612 792" xml:space="preserve">
<g id="Body">
	<g>
		<path fill="#8F8F8F" d="M221.5,490.7C104.9,403.3,71.4,326.1,62.7,282.3C30.6,339.2,7.3,406.2,16,471.8
			c17.5,142.8,148.6,204,208.4,211.3c40.8,4.4,86-1.5,125.3-17.5c40.8-16,81.6-45.2,118-80.1c-7.3,1.5-13.1,2.9-21.9,2.9
			C402.2,589.8,327.9,570.9,221.5,490.7z"/>
		<path fill="#8F8F8F" d="M565.4,464.5c-7.3,2.9-14.6,4.4-26.2,4.4c-37.9,0-109.3-18.9-228.8-107.8
			c-87.4-69.9-150.1-154.5-151.5-206.9l0,0c-20.4,21.9-46.6,53.9-69.9,91.8c0,1.5,0,2.9,0,4.4c4.4,36.4,29.1,118,155.9,214.2
			c153,115.1,230.2,99.1,255,88.9l0,0C526,524.2,549.3,495.1,565.4,464.5C565.4,463,565.4,463,565.4,464.5z"/>
		<path fill="#8F8F8F" d="M502.7,550.5L502.7,550.5L502.7,550.5L502.7,550.5z"/>
	</g>
</g>
<g id="Bulb">
	<path id="border" fill="#8F8F8F" d="M188,142.5c1.5,40.8,51,119.5,145.7,192.3c122.4,91.8,190.9,104.9,220,104.9
		c20.4,0,35-5.8,40.8-17.5l0,0c16-37.9-35-120.9-118-190.9C373,141,282.7,107.5,233.1,107.5C233.1,107.5,187.5,103.5,188,142.5z
		 M553.7,433.7c-29.2,0-96.1-13.5-216.4-103.7C245.1,259.1,195.4,181.9,194,142.3c-0.1-8.3,2.1-14.7,6.8-19.4
		c8.5-8.6,23-9.5,28.9-9.5c1.8,0,3,0.1,3,0.1l0.2,0l0.3,0c26.2,0,61.3,9.8,98.9,27.5c45.9,21.7,93.2,53.6,140.5,94.9l0.1,0.1
		c39.6,33.4,73.3,71,94.9,106c20.4,33.1,28.3,61.4,21.5,77.8C582.8,431.9,564.3,433.7,553.7,433.7z"/>
	<path id="fill1" fill="#8F8F8F" d="M188,142.5c1.5,40.8,51,119.5,145.7,192.3c122.4,91.8,190.9,104.9,220,104.9
		c20.4,0,35-5.8,40.8-17.5l0,0c16-37.9-35-120.9-118-190.9C373,141,282.7,107.5,233.1,107.5C233.1,107.5,187.5,103.5,188,142.5z"/>
</g>
</svg>
