<?xml version="1.0" encoding="utf-8"?>
<!-- Generator: Adobe Illustrator 18.1.0, SVG Export Plug-In . SVG Version: 6.00 Build 0)  -->
<svg version="1.1" id="HUE-A19" xmlns="http://www.w3.org/2000/svg" xmlns:xlink="http://www.w3.org/1999/xlink" x="0px" y="0px"
	 viewBox="0 0 42 42" enable-background="new 0 0 42 42" xml:space="preserve">
<g>
	<g>
		<path id="outer_color1" fill="#8F8F8F" d="M26,34.4H16c-0.5,0-1,0.4-1,1c0,0.5,0.4,1,1,1H26c0.5,0,1-0.4,1-1C26.9,34.8,26.5,34.4,26,34.4z"/>
		<path id="outer_color2" fill="#8F8F8F" d="M24.7,37.7h-7.4c-0.4,0-0.7,0.2-0.9,0.6c-0.2,0.4-0.1,0.8,0.2,1.1c1.1,1.2,2.7,2,4.4,2
			c1.8,0,3.3-0.8,4.4-2c0.3-0.3,0.3-0.7,0.2-1.1C25.4,37.9,25.1,37.7,24.7,37.7z"/>
	</g>
	<g>
		<path id="inner_color1" fill="#FFFF00" d="M31.5,11.5c2.1-5.4,2.1-6.9,0.9-8.2c-2.6-2.8-10.6-2.6-10.6-2.6h-1.7c0,0-7.9-0.2-10.6,2.6
			c-1.2,1.3-1.2,2.8,0.9,8.2H31.5z"/>
		<path id="outer_color3" fill="#8F8F8F" d="M27.6,27c0.3-6,1.1-8.1,2.8-12.7H11.6C13.3,19,14.2,21,14.4,27v3c0,0-0.4,2.1,3.3,2.1h6.5
			c3.7,0,3.3-2.1,3.3-2.1V27z"/>
	</g>
</g>
</svg>
