<?xml version="1.0" encoding="utf-8"?>
<!-- Generator: Adobe Illustrator 18.1.0, SVG Export Plug-In . SVG Version: 6.00 Build 0)  -->
<svg version="1.1" id="Layer_1" xmlns="http://www.w3.org/2000/svg" xmlns:xlink="http://www.w3.org/1999/xlink" x="0px" y="0px"
	 viewBox="0 0 612 792" enable-background="new 0 0 612 792" xml:space="preserve">
<g id="Body">
	<g>
		<g>
			<path fill="#8F8F8F" d="M378.9,591.3H233.1c-7.3,0-14.6,5.8-14.6,14.6c0,7.3,5.8,14.6,14.6,14.6h145.7c7.3,0,14.6-5.8,14.6-14.6
				C392,597.1,386.1,591.3,378.9,591.3z"/>
			<path fill="#8F8F8F" d="M359.9,639.3H252.1c-5.8,0-10.2,2.9-13.1,8.7c-2.9,5.8-1.5,11.7,2.9,16c16,17.5,39.3,29.1,64.1,29.1
				c26.2,0,48.1-11.7,64.1-29.1c4.4-4.4,4.4-10.2,2.9-16C370.1,642.3,365.7,639.3,359.9,639.3z"/>
		</g>
		<g>
			<path fill="#8F8F8F" d="M402.2,483.4c4.4-87.4,16-118,40.8-185.1H169c24.8,68.5,37.9,97.6,40.8,185.1v43.7
				c0,0-5.8,30.6,48.1,30.6h94.7c53.9,0,48.1-30.6,48.1-30.6v-43.7L402.2,483.4L402.2,483.4z"/>
		</g>
	</g>
</g>
<g id="Bulb">
	<path id="border" fill="#8F8F8F" d="M459,257.6c30.6-78.7,30.6-100.5,13.1-119.5c-37.9-40.8-154.5-37.9-154.5-37.9h-24.8
		c0,0-115.1-2.9-154.5,37.9c-17.5,18.9-17.5,40.8,13.1,119.5H459z M155.7,251.6c-14.4-37.4-21.2-60.4-22.7-76.7
		c-1.5-16.6,2.6-24.8,9.9-32.7c33.2-34.3,126.7-36.1,145.1-36.1c3.1,0,4.8,0,4.9,0H318c0,0,1.8,0,4.9,0c18.6,0,113.1,1.7,145,36
		c7.2,7.9,11.4,16.1,9.9,32.7c-1.5,16.3-8.3,39.3-22.7,76.7H155.7V251.6z"/>
	<path id="fill1" fill="#8F8F8F" d="M459,257.6c30.6-78.7,30.6-100.5,13.1-119.5c-37.9-40.8-154.5-37.9-154.5-37.9h-24.8
		c0,0-115.1-2.9-154.5,37.9c-17.5,18.9-17.5,40.8,13.1,119.5H459z"/>
</g>
</svg>
