<?xml version="1.0" encoding="utf-8"?>
<!-- Generator: Adobe Illustrator 18.1.0, SVG Export Plug-In . SVG Version: 6.00 Build 0)  -->
<svg version="1.1" xmlns="http://www.w3.org/2000/svg" xmlns:xlink="http://www.w3.org/1999/xlink" x="0px" y="0px"
	 viewBox="0 0 612 792" enable-background="new 0 0 612 792" xml:space="preserve">
<g id="Body">
	<g>
		<g>
			<path fill="#8F8F8F" d="M306,672.9C145.7,672.9,14.6,565,14.6,431S145.7,189.1,306,189.1S597.4,296.9,597.4,431
				S466.3,672.9,306,672.9z M306,218.2c-144.3,0-262.3,96.2-262.3,212.7c0,118,118,212.7,262.3,212.7S568.3,547.5,568.3,431
				S450.3,218.2,306,218.2z"/>
		</g>
		<g>
			<path fill="#8F8F8F" d="M306,171.6c59.7,0,116.6,14.6,164.7,37.9c-33.5-53.9-94.7-90.3-164.7-90.3s-131.1,36.4-164.7,91.8
				C189.4,186.2,244.8,171.6,306,171.6z"/>
		</g>
	</g>
</g>
<g id="Bulb">
	<path id="border" fill="#8F8F8F" d="M499.8,439.5c0,86-86,157.4-192.3,157.4S115.1,527,115.1,439.5s86-157.4,192.3-157.4
		C412.4,282.2,499.8,352.1,499.8,439.5z M439.7,545.8c34.9-28.7,54.1-66.4,54.1-106.3c0-40.3-19.4-78.2-54.6-106.8
		c-35.4-28.7-82.1-44.6-131.7-44.6c-50.1,0-97.1,15.8-132.3,44.5c-34.9,28.5-54.1,66.4-54.1,106.8s19.2,78.3,54.1,106.8
		c35.2,28.7,82.1,44.5,132.3,44.5C357.4,590.9,404.3,574.9,439.7,545.8z"/>
	<path id="fill1" fill="#8F8F8F" d="M499.8,439.5c0,86-86,157.4-192.3,157.4S115.1,527,115.1,439.5s86-157.4,192.3-157.4
		C412.4,282.2,499.8,352.1,499.8,439.5z"/>
</g>
</svg>
