<?xml version="1.0" encoding="utf-8"?>
<!-- Generator: Adobe Illustrator 18.1.0, SVG Export Plug-In . SVG Version: 6.00 Build 0)  -->
<svg version="1.1" id="Bulb" xmlns="http://www.w3.org/2000/svg" xmlns:xlink="http://www.w3.org/1999/xlink" x="0px" y="0px"
	 viewBox="0 0 612 792" enable-background="new 0 0 612 792" xml:space="preserve">
<path id="border2" fill="#8F8F8F" d="M306,562.1c155.9,0,284.1-68.5,291.4-153H14.6C21.9,495.1,150.1,562.1,306,562.1z M306,556.1
	c-74.5,0-145.1-15.5-198.7-43.6c-49.7-26.1-80-60.5-86-97.4h569.3c-6.1,36.5-36.3,70.7-86,96.9C450.8,540.4,380.2,556.1,306,556.1z"
	/>
<path id="border1" fill="#8F8F8F" d="M306,229.9c-155.9,0-284.1,68.5-291.4,153h582.9C590.1,296.9,461.9,229.9,306,229.9z
	 M21.4,376.9c6.1-36.5,36.3-70.7,86-96.9c53.9-28.4,124.4-44.1,198.6-44.1c74.5,0,145.1,15.5,198.7,43.6c49.7,26.1,80,60.5,86,97.4
	H21.4z"/>
<path id="fill2" fill="#8F8F8F" d="M306,562.1c155.9,0,284.1-68.5,291.4-153H14.6C21.9,495.1,150.1,562.1,306,562.1z"/>
<path id="fill1" fill="#8F8F8F" d="M306,229.9c-155.9,0-284.1,68.5-291.4,153h582.9C590.1,296.9,461.9,229.9,306,229.9z"/>
</svg>
