<?xml version="1.0" encoding="utf-8"?>
<!-- Generator: Adobe Illustrator 18.1.0, SVG Export Plug-In . SVG Version: 6.00 Build 0)  -->
<svg version="1.1" xmlns="http://www.w3.org/2000/svg" xmlns:xlink="http://www.w3.org/1999/xlink" x="0px" y="0px"
	 viewBox="0 0 612 792" enable-background="new 0 0 612 792" xml:space="preserve">
<g id="Body">
	<g>
		<g>
			<path fill="#8F8F8F" d="M389.1,563.6L224.4,565c-8.7,0-16,7.3-16,16c0,8.7,7.3,16,16,16l164.7-1.5c8.7,0,16-7.3,16-16
				C405.1,570.9,397.8,563.6,389.1,563.6z"/>
			<path fill="#8F8F8F" d="M367.2,618.9H244.8c-5.8,0-13.1,4.4-14.6,10.2c-2.9,5.8-1.5,13.1,2.9,17.5c17.5,20.4,45.2,32.1,74.3,32.1
				c29.1,0,55.4-13.1,74.3-33.5c4.4-4.4,5.8-11.7,2.9-17.5C380.3,623.3,374.5,618.9,367.2,618.9z"/>
		</g>
		<path fill="#8F8F8F" d="M527.5,215.3l-10.2,179.2c0,0-2.9,64.1-99.1,142.8H308.9h-1.5H198.2C100.5,460.1,96.2,396,96.2,396
			L84.5,218.2L527.5,215.3z"/>
		<g>
			
				<ellipse transform="matrix(-5.584255e-03 -1 1 -5.584255e-03 105.5163 509.3324)" fill="#8F8F8F" cx="306" cy="202.2" rx="90.3" ry="250.6"/>
		</g>
		<g>
			<path fill="#FFFFFF" d="M306,263.4c-48.1,0-206.9-2.9-206.9-59.7S256.5,141,304.5,141s206.9,2.9,206.9,59.7
				C512.9,257.6,354.1,263.4,306,263.4z"/>
		</g>
	</g>
</g>
<g id="Bulb">
	<path id="border" fill="#8F8F8F" d="M305.8,162.9c95.8-0.5,173.5,16.6,173.6,38.4c0.1,21.7-77.4,39.8-173.2,40.3
		c-95.8,0.5-173.5-16.6-173.6-38.4C132.5,181.4,210,163.4,305.8,162.9z M306.2,235.5c45.9-0.3,88.9-4.5,121.2-12.1
		c45.5-10.6,46-21.8,46-22.2c0-0.5-0.6-11.4-44.8-21.4c-31.4-7.1-73.5-11-118.4-11c-1.4,0-2.9,0-4.3,0
		c-45.9,0.3-88.9,4.5-121.2,12.1c-45.5,10.6-46,21.8-46,22.2c0,0.5,0.6,11.4,44.8,21.4c31.4,7.1,73.5,11,118.4,11
		C303.3,235.6,304.8,235.6,306.2,235.5z"/>
	<g>
		
			<ellipse id="fill1" transform="matrix(-5.586639e-03 -1 1 -5.586639e-03 105.5178 509.3322)" fill="#8F8F8F" cx="306" cy="202.2" rx="39.3" ry="173.4"/>
	</g>
</g>
</svg>
