<?xml version="1.0" encoding="utf-8"?>
<!-- Generator: Adobe Illustrator 18.1.0, SVG Export Plug-In . SVG Version: 6.00 Build 0)  -->
<svg version="1.1" id="Bulb" xmlns="http://www.w3.org/2000/svg" xmlns:xlink="http://www.w3.org/1999/xlink" x="0px" y="0px"
	 viewBox="0 0 612 792" enable-background="new 0 0 612 792" xml:space="preserve">
<path id="border2" fill="#8F8F8F" d="M306,598.5c155.9,0,282.7-120.9,291.4-189.4H14.6C23.3,474.7,150.1,598.5,306,598.5z
	 M306,592.5c-91.6,0-162.9-43.2-197.3-68.9c-45.1-33.8-79-76.4-86.9-108.5h568.4C574.8,481,454.7,592.5,306,592.5z"/>
<path id="border1" fill="#8F8F8F" d="M306,193.5c-155.9,0-282.7,115.1-291.4,189.4h582.9C588.7,308.6,461.9,193.5,306,193.5z
	 M21.6,376.9c7.4-35,40.7-78,87-111.7c58.2-42.4,128.3-65.7,197.4-65.7c69.1,0,139.2,23.3,197.4,65.7c46.3,33.7,79.6,76.7,87,111.7
	H21.6z"/>
<path id="fill2" fill="#8F8F8F" d="M306,598.5c155.9,0,282.7-120.9,291.4-189.4H14.6C23.3,474.7,150.1,598.5,306,598.5z"/>
<path id="fill1" fill="#8F8F8F" d="M306,193.5c-155.9,0-282.7,115.1-291.4,189.4h582.9C588.7,308.6,461.9,193.5,306,193.5z"/>
</svg>
