<?xml version="1.0" encoding="utf-8"?>
<!-- Generator: Adobe Illustrator 18.1.0, SVG Export Plug-In . SVG Version: 6.00 Build 0)  -->
<svg version="1.1" xmlns="http://www.w3.org/2000/svg" xmlns:xlink="http://www.w3.org/1999/xlink" x="0px" y="0px"
	 viewBox="0 0 612 792" enable-background="new 0 0 612 792" xml:space="preserve">
<g id="Body_1_">
	<g id="Body">
		<g>
			<g>
				<polyline fill="#8F8F8F" points="281.2,611.7 306,611.7 306,611.7 330.8,611.7 				"/>
				<path fill="#8F8F8F" d="M155.9,336.3c17.5,55.4,26.2,58.3,39.3,71.4s29.1,29.1,29.1,58.3s0,119.5,0,119.5l33.5,27.7h4.4h93.3
					l33.5-27.7c0,0,0-90.3,0-119.5s16-43.7,29.1-58.3c13.1-13.1,21.9-16,39.3-71.4s18.9-148.6,18.9-148.6H137
					C137,187.6,137,280.9,155.9,336.3z"/>
			</g>
			<ellipse fill="#8F8F8F" cx="262.3" cy="664.1" rx="29.1" ry="24.8"/>
			<ellipse fill="#8F8F8F" cx="351.2" cy="664.1" rx="29.1" ry="24.8"/>
		</g>
		<path fill="#ED2C28" d="M494.1,120.6"/>
	</g>
</g>
<g id="Bulb">
	<path id="border_1_" fill="#8F8F8F" d="M473.5,153.1c10.2-2.9,16-10.2,16-10.2v-23.3c-58.3-17.5-179.2-16-185.1-16
		c-5.8,0-126.8,0-185.1,16v23.3c0,0,5.8,7.3,16,10.2H473.5z M136.4,147.1c-5.3-1.7-9-4.8-10.9-6.6v-16.3
		c57.3-14.2,166.5-14.7,179.1-14.7h1.3c1.5,0,4.1,0,7.7,0c101.3,0,150.6,9.4,170,14.6v16.4c-1.9,1.8-5.7,4.9-10.9,6.6H136.4z"/>
	<path id="fill1" fill="#8F8F8F" d="M473.5,153.1c10.2-2.9,16-10.2,16-10.2v-23.3c-58.3-17.5-179.2-16-185.1-16
		c-5.8,0-126.8,0-185.1,16v23.3c0,0,5.8,7.3,16,10.2H473.5z"/>
</g>
</svg>
